:version 1.10
:name ASF
:units
  mass 1
  length 1
  angle deg
:documentation
  ASF file generated by Kaydara
:root
  axis xyz
  order  tx ty tz rx ry rz
  position 0 0 0
  orientation 0 0 0
:bonedata
  begin
    id 1
    name RightUpLegDummy
    direction -1 2.30186e-007 8.31532e-007
    length 4.04083
    axis 0 0 0 xyz
  end
  begin
    id 2
    name RightUpLeg
    direction -0.000919234 -0.999985 0.00544864
    length 17.4221
    axis -3.80308 -0.00076134 -0.0523649 xyz
    dof rx ry rz
  end
  begin
    id 3
    name RightLeg
    direction -0.000919271 -0.999984 -0.00555045
    length 17.1239
    axis 4.00314 0.0181274 -0.183583 xyz
    dof rx ry rz
  end
  begin
    id 4
    name RightFoot
    direction -2.57843e-005 -4.04509e-007 1
    length 6.72091
    axis 8.18909e-005 -0.122003 -0.403008 xyz
    dof rx ry rz
  end
  begin
    id 5
    name RightToes
    direction 0.00116825 -0.014069 0.9999
    length 3.85082
    axis 0.000514414 0.540638 -0.356797 xyz
    dof rx ry rz
  end
  begin
    id 6
    name SpineDummy
    direction 0.0168869 0.966876 -0.254689
    length 6.99894
    axis 0 0 0 xyz
  end
  begin
    id 7
    name Spine
    direction -0.0132008 0.999903 0.00446247
    length 11.1999
    axis -0.00148109 0.00725429 0.756411 xyz
    dof rx ry rz
  end
  begin
    id 8
    name Spine1
    direction 0 0 0
    length 0
    axis -0.000934958 0.0245693 1.46543 xyz
    dof rx ry rz
  end
  begin
    id 9
    name HEadDummy
    direction -0.0255732 0.999672 0.00128215
    length 3.43865
    axis -0.000934958 0.0245693 1.46543 xyz
  end
  begin
    id 10
    name HEad
    direction -0.0472656 0.980052 0.19304
    length 5.12695
    axis -0.000934954 0.0245693 1.46543 xyz
    dof rx ry rz
  end
  begin
    id 11
    name LeftShoulder1Dummy
    direction 0.953098 0.301717 -0.023914
    length 3.68488
    axis -0.000934958 0.0245693 1.46543 xyz
  end
  begin
    id 12
    name LeftShoulder1
    direction 0.962466 0.271167 0.0112566
    length 3.13809
    axis -0.000934958 0.0245693 1.46543 xyz
    dof rx ry rz
  end
  begin
    id 13
    name LeftArm
    direction 0.999943 0.00455037 -0.00961766
    length 11.3419
    axis -23.1648 0.685459 1.22814 xyz
    dof rx ry rz
  end
  begin
    id 14
    name LeftForeArm
    direction 0.999332 0.0131969 0.0340885
    length 8.70632
    axis -9.90633 0.618216 0.0826942 xyz
    dof rx ry rz
  end
  begin
    id 15
    name LeftHand
    direction 0.994373 -0.0366703 0.0993905
    length 5.32135
    axis 0.00675269 0.680415 0.445699 xyz
    dof rx ry rz
  end
  begin
    id 16
    name RightShoulderDummy
    direction -0.967298 0.252589 -0.0230903
    length 3.68488
    axis -0.000934958 0.0245693 1.46543 xyz
  end
  begin
    id 17
    name RightShoulder
    direction -0.975062 0.221602 0.0120823
    length 3.13809
    axis 0.216257 0.0246515 1.45863 xyz
    dof rx ry rz
  end
  begin
    id 18
    name RightArm
    direction -0.99886 -0.00851186 -0.0469687
    length 10.3947
    axis -23.196 0.23503 -0.532632 xyz
    dof rx ry rz
  end
  begin
    id 19
    name RightForeArm
    direction -0.99909 0.00114866 0.0426317
    length 8.68355
    axis -9.91764 -0.134943 0.610517 xyz
    dof rx ry rz
  end
  begin
    id 20
    name RightHand
    direction -0.992888 -0.0489538 0.10852
    length 5.28593
    axis -0.00275396 -0.197403 0.246414 xyz
    dof rx ry rz
  end
  begin
    id 21
    name LeftUpLegDummy
    direction 1 -2.30186e-007 -8.31532e-007
    length 4.04083
    axis 0 0 0 xyz
  end
  begin
    id 22
    name LeftUpLeg
    direction -0.000920097 -1 2.79241e-006
    length 17.4221
    axis -3.48782 0.00143434 -0.0532288 xyz
    dof rx ry rz
  end
  begin
    id 23
    name LeftLeg
    direction -0.000920097 -1 2.7912e-006
    length 17.1239
    axis 3.68162 -0.00806512 -0.0529896 xyz
    dof rx ry rz
  end
  begin
    id 24
    name LeftFoot
    direction -2.57845e-005 -3.987e-007 1
    length 6.72091
    axis 3.02372e-005 -0.00147829 -0.214229 xyz
    dof rx ry rz
  end
  begin
    id 25
    name LeftToes
    direction 0.00813577 -0.00488255 0.999955
    length 3.85048
    axis 3.89895e-005 -0.0014783 -0.214229 xyz
    dof rx ry rz
  end
:hierarchy
  begin
    root RightUpLegDummy SpineDummy LeftUpLegDummy
    RightUpLegDummy RightUpLeg
    RightUpLeg RightLeg
    RightLeg RightFoot
    RightFoot RightToes
    SpineDummy Spine
    Spine Spine1
    Spine1 HEadDummy LeftShoulder1Dummy RightShoulderDummy
    HEadDummy HEad
    LeftShoulder1Dummy LeftShoulder1
    LeftShoulder1 LeftArm
    LeftArm LeftForeArm
    LeftForeArm LeftHand
    RightShoulderDummy RightShoulder
    RightShoulder RightArm
    RightArm RightForeArm
    RightForeArm RightHand
    LeftUpLegDummy LeftUpLeg
    LeftUpLeg LeftLeg
    LeftLeg LeftFoot
    LeftFoot LeftToes
  end

:SAMPLES-PER-SECOND 30
:FULLY-SPECIFIED
:DEGREES
114
root  -47.3677 34.3074 7.0343 -167.322 -11.8592 -179.475
RightUpLeg  -35.7198 -6.32462 4.15123
RightLeg  21.7077 -5.38658 -1.75177
RightFoot  13.1087 0.195341 -1.13359
RightToes  -32.1539 -0.159031 -0.266654
Spine  -0.267897 -0.937618 -0.732839
Spine1  -0.478818 -1.77404 -0.824968
HEad  -29.9454 7.80208 -2.31628
LeftShoulder1  -1.94126e-019 -3.10601e-018 -2.51263e-017
LeftArm  -2.5748 7.96267 -76.4537
LeftForeArm  31.2825 -37.8839 -6.82014
LeftHand  -0.32883 -0.777328 6.30692
RightShoulder  -4.96962e-017 0 -2.36833e-017
RightArm  -17.6295 -26.1309 77.0268
RightForeArm  51.2643 24.7442 2.66083
RightHand  -0.362384 -0.272853 -8.23865
LeftUpLeg  -5.15153 -10.6263 -4.88632
LeftLeg  9.40867 15.0016 1.48571
LeftFoot  -8.4569 -0.169338 -2.12851
LeftToes  2.75257 1.46665e-006 1.03344e-007
115
root  -47.6541 34.0099 5.45892 -167.324 -12.8552 -179.585
RightUpLeg  -34.6868 -9.30205 6.29358
RightLeg  9.32302 1.458 0.145021
RightFoot  13.9426 0.0072923 0.468155
RightToes  -34.7888 -0.178249 -0.283833
Spine  -0.460351 -0.953718 -0.516255
Spine1  -0.83999 -1.78802 -0.400162
HEad  -29.8826 6.52112 -1.94203
LeftShoulder1  -1.94126e-019 -3.10601e-018 -2.51263e-017
LeftArm  -1.49406 7.07902 -76.4602
LeftForeArm  31.5674 -40.6901 -7.63353
LeftHand  -0.334225 -0.841229 6.34868
RightShoulder  -4.96962e-017 0 -2.36833e-017
RightArm  -18.7934 -26.6214 76.905
RightForeArm  51.3803 22.6943 2.25128
RightHand  -0.350394 -0.451554 -8.23577
LeftUpLeg  -2.53225 -10.0448 -5.14943
LeftLeg  9.45035 13.7282 1.37205
LeftFoot  -10.5624 -0.240769 -2.4427
LeftToes  3.93825 1.46665e-006 1.03344e-007
116
root  -47.8806 33.6634 3.78415 -167.618 -13.8639 -178.916
RightUpLeg  -33.7728 -11.7369 9.17937
RightLeg  0.900961 6.20371 -0.300073
RightFoot  11.7061 -0.0860412 1.34109
RightToes  -35.9633 -0.187066 -0.291203
Spine  -0.717588 -0.94091 0.0248254
Spine1  -1.32957 -1.7729 0.676208
HEad  -30.0031 5.52112 -1.71682
LeftShoulder1  -1.94126e-019 -3.10601e-018 -2.51263e-017
LeftArm  -0.990074 7.10732 -76.9424
LeftForeArm  31.513 -43.0335 -8.39021
LeftHand  -0.322467 -0.810109 6.15675
RightShoulder  -4.96962e-017 0 -2.36833e-017
RightArm  -19.4097 -27.0213 76.3798
RightForeArm  51.8477 19.8821 1.69556
RightHand  -0.352852 -0.408264 -8.22603
LeftUpLeg  -0.651689 -8.93223 -4.40334
LeftLeg  11.5116 12.1965 1.66248
LeftFoot  -13.3003 -0.338649 -2.74242
LeftToes  4.18425 1.46665e-006 1.03344e-007
117
root  -48.1115 33.309 2.04139 -168.416 -15.1494 -178.093
RightUpLeg  -34.0022 -12.2523 10.5715
RightLeg  2.78324 1.165 -0.0176304
RightFoot  6.67323 0.0183528 0.213494
RightToes  -32.2311 -0.159583 -0.26717
Spine  -0.852644 -1.07499 0.669363
Spine1  -1.58767 -2.12039 1.95996
HEad  -30.4821 4.49609 -1.80865
LeftShoulder1  -1.94126e-019 -3.10601e-018 -2.51263e-017
LeftArm  -0.84761 7.74978 -77.6464
LeftForeArm  31.467 -44.6075 -8.93357
LeftHand  -0.330751 -0.677625 6.43869
RightShoulder  -4.96962e-017 0 -2.36833e-017
RightArm  -19.9431 -27.3393 75.7877
RightForeArm  52.7929 18.2402 1.36064
RightHand  -0.360505 -0.372067 -8.34799
LeftUpLeg  0.373809 -8.36197 -3.3844
LeftLeg  16.3925 10.9873 2.45925
LeftFoot  -15.6924 -0.42847 -2.94698
LeftToes  2.29539 1.46665e-006 1.03344e-007
118
root  -48.3113 33.015 0.229058 -169.412 -16.3662 -176.427
RightUpLeg  -33.8962 -9.02628 10.2939
RightLeg  8.45992 -6.83028 -0.567103
RightFoot  11.6986 0.194348 -1.32201
RightToes  -20.8605 -0.0863076 -0.183705
Spine  -1.06602 -1.28073 1.63021
Spine1  -2.02702 -2.62858 3.87921
HEad  -31.5384 2.71619 -2.98039
LeftShoulder1  -1.94126e-019 -3.10601e-018 -2.51263e-017
LeftArm  -1.40764 9.42596 -78.7896
LeftForeArm  31.2487 -45.7676 -9.36969
LeftHand  -0.299517 -0.145296 6.34868
RightShoulder  -4.96962e-017 0 -2.36833e-017
RightArm  -21.5993 -27.5279 74.9817
RightForeArm  54.858 16.4297 1.05491
RightHand  -0.37564 -0.340036 -8.64724
LeftUpLeg  0.0279617 -5.65182 -0.715678
LeftLeg  23.5879 7.89429 2.84383
LeftFoot  -16.0473 -0.332782 -2.19894
LeftToes  -7.67889 1.46665e-006 1.03344e-007
119
root  -48.39 32.8843 -1.5804 -170.581 -17.6715 -173.967
RightUpLeg  -35.0177 -9.34797 12.6846
RightLeg  16.5481 -6.25121 -1.424
RightFoot  11.2471 0.177614 -1.22997
RightToes  -13.6814 -0.0491051 -0.124181
Spine  -1.44513 -1.4531 2.7339
Spine1  -2.83539 -3.05499 6.09474
HEad  -32.8185 -2.1209 -5.02
LeftShoulder1  -1.94126e-019 -3.10601e-018 -2.51263e-017
LeftArm  -2.23109 11.6234 -80.3014
LeftForeArm  32.0743 -45.1906 -9.10859
LeftHand  -0.355304 -0.749368 6.83587
RightShoulder  -4.96962e-017 0 -2.36833e-017
RightArm  -25.6062 -28.0584 74.2891
RightForeArm  57.2032 14.5365 1.16754
RightHand  -0.38156 -0.58773 -9.21148
LeftUpLeg  -2.78014 1.18897 4.63584
LeftLeg  34.2903 2.3261 1.37012
LeftFoot  -10.8197 -0.0534092 -0.402457
LeftToes  -38.4857 1.46665e-006 1.03344e-007
120
root  -48.5279 32.9767 -3.35023 -171.921 -18.1862 -173.629
RightUpLeg  -35.1797 -8.76288 12.4117
RightLeg  25.2365 -6.85495 -2.70314
RightFoot  6.19529 0.0730559 -0.771577
RightToes  -10.4161 -0.034711 -0.0956654
Spine  -1.63392 -1.65678 2.81186
Spine1  -3.28203 -3.53642 6.26816
HEad  -34.3982 -10.1153 -7.22671
LeftShoulder1  -1.94126e-019 -3.10601e-018 -2.51263e-017
LeftArm  -5.20539 14.2369 -81.3291
LeftForeArm  33.2388 -42.7773 -8.20016
LeftHand  -0.379114 -0.952629 7.0711
RightShoulder  -4.96962e-017 0 -2.36833e-017
RightArm  -29.5388 -28.4057 74.6254
RightForeArm  58.7126 12.7371 1.39798
RightHand  -0.368894 -0.843501 -9.37826
LeftUpLeg  -6.18929 5.90651 7.71836
LeftLeg  46.2894 -0.884619 -0.821661
LeftFoot  1.81999 0.00235597 0.0131821
LeftToes  -57.9825 1.46665e-006 1.03344e-007
121
root  -48.6395 33.1513 -5.0747 -173.864 -18.1486 -173.788
RightUpLeg  -31.8384 -10.9242 12.6544
RightLeg  27.8929 -5.19137 -2.3365
RightFoot  2.04751 0.0129146 -0.159393
RightToes  -6.69959 -0.0203354 -0.0622735
Spine  -1.36316 -1.99918 2.44693
Spine1  -2.79669 -4.24205 5.54809
HEad  -37.2038 -19.8191 -8.60476
LeftShoulder1  -1.94126e-019 -3.10601e-018 -2.51263e-017
LeftArm  -8.82739 16.6911 -81.5823
LeftForeArm  31.8801 -39.4722 -7.24788
LeftHand  -0.355303 -0.493603 7.11019
RightShoulder  -4.96962e-017 0 -2.36833e-017
RightArm  -32.1358 -27.5298 75.4388
RightForeArm  60.4532 11.5099 1.50553
RightHand  -0.342437 -0.699653 -8.44756
LeftUpLeg  -10.3173 7.54055 9.2809
LeftLeg  58.6549 -0.850649 -1.22571
LeftFoot  13.7174 0.0585366 -0.325156
LeftToes  -44.2503 1.46665e-006 1.03344e-007
122
root  -48.7793 33.3957 -6.66883 -174.562 -17.9939 -174.172
RightUpLeg  -28.0837 -12.7052 12.4796
RightLeg  27.3188 -3.66292 -1.60827
RightFoot  -0.54414 -0.0023553 0.102549
RightToes  -6.83288 -0.0208133 -0.0634868
Spine  -1.35571 -2.33668 1.85972
Spine1  -2.79414 -4.8815 4.38502
HEad  -39.2701 -30.0682 -9.78665
LeftShoulder1  -1.94126e-019 -3.10601e-018 -2.51263e-017
LeftArm  -10.6343 18.5777 -80.9709
LeftForeArm  28.3301 -35.3191 -6.30295
LeftHand  -0.34919 -0.0264375 7.54771
RightShoulder  -4.96962e-017 0 -2.36833e-017
RightArm  -33.3036 -26.3991 76.5569
RightForeArm  61.8274 10.9008 1.53219
RightHand  -0.326927 -0.829826 -8.27803
LeftUpLeg  -15.3867 8.08224 9.12362
LeftLeg  66.9986 1.5499 3.06357
LeftFoot  21.1798 -0.209817 1.28372
LeftToes  -32.184 1.46665e-006 1.03344e-007
123
root  -48.9088 33.7506 -8.20041 -175.02 -16.0391 -174.743
RightUpLeg  -23.9061 -10.8557 11.6499
RightLeg  25.816 -3.81137 -1.55412
RightFoot  -1.51288 -0.00759318 0.193616
RightToes  -6.76006 -0.0214917 -0.0626852
Spine  -1.46585 -2.08687 1.04843
Spine1  -2.99716 -4.35002 2.75682
HEad  -39.4746 -39.8909 -11.505
LeftShoulder1  -1.94126e-019 -3.10601e-018 -2.51263e-017
LeftArm  -13.6694 20.2252 -80.1504
LeftForeArm  28.9201 -29.699 -5.2673
LeftHand  -0.33765 -0.221817 7.06259
RightShoulder  -4.96962e-017 0 -2.36833e-017
RightArm  -32.2012 -26.0436 78.0382
RightForeArm  61.2733 11.5977 1.49824
RightHand  -0.339744 -0.96387 -8.85231
LeftUpLeg  -18.7053 9.74654 8.3983
LeftLeg  70.3921 3.10836 7.16017
LeftFoot  16.9591 -0.326147 2.34891
LeftToes  -31.2469 1.46665e-006 1.03344e-007
124
root  -49.0858 34.1328 -9.68256 -176.003 -12.6275 -175.847
RightUpLeg  -18.6363 -7.94395 10.1418
RightLeg  23.2774 -3.67229 -1.30971
RightFoot  -1.7045 -0.00936148 0.226407
RightToes  -6.63627 -0.022158 -0.0612759
Spine  -1.30682 -1.47967 0.00737044
Spine1  -2.66147 -3.07754 0.668878
HEad  -39.4102 -48.0737 -12.9483
LeftShoulder1  -1.94126e-019 -3.10601e-018 -2.51263e-017
LeftArm  -17.0191 21.519 -79.0277
LeftForeArm  32.1717 -23.2345 -4.18822
LeftHand  -0.358195 -0.245094 7.46093
RightShoulder  -4.96962e-017 0 -2.36833e-017
RightArm  -28.073 -25.4711 79.5388
RightForeArm  57.3324 13.3092 1.33698
RightHand  -0.333646 -1.14836 -9.04932
LeftUpLeg  -20.0199 12.0721 7.21182
LeftLeg  69.4456 4.00104 8.79172
LeftFoot  14.3943 -0.297139 2.51425
LeftToes  -26.8197 1.46665e-006 1.03344e-007
125
root  -49.253 34.4586 -10.9984 -176.126 -9.29166 -176.585
RightUpLeg  -14.2828 -6.31882 9.23593
RightLeg  19.7701 -2.32854 -0.673068
RightFoot  -1.35345 -0.00700321 0.190486
RightToes  -6.63204 -0.0229033 -0.0616581
Spine  -1.42799 -1.06411 -0.774094
Spine1  -2.90105 -2.16352 -0.857939
HEad  -41.325 -54.0106 -12.37
LeftShoulder1  -1.94126e-019 -3.10601e-018 -2.51263e-017
LeftArm  -19.3577 23.5269 -78.0414
LeftForeArm  33.1234 -17.5734 -3.15576
LeftHand  -0.359491 0.294312 8.22792
RightShoulder  -4.96962e-017 0 -2.36833e-017
RightArm  -22.8255 -24.5689 80.314
RightForeArm  53.8887 15.4431 1.12693
RightHand  -0.327431 -0.97299 -8.54419
LeftUpLeg  -21.8747 13.9697 6.20462
LeftLeg  65.6496 5.57366 10.3225
LeftFoot  12.9686 -0.299956 2.80019
LeftToes  -27.3708 1.46665e-006 1.03344e-007
126
root  -49.437 34.6917 -12.1849 -175.912 -5.91661 -177.278
RightUpLeg  -10.5181 -5.38237 8.2614
RightLeg  16.1209 -0.140274 -0.0313147
RightFoot  -0.949611 -0.00490507 0.147477
RightToes  -7.15595 -0.0238182 -0.066423
Spine  -1.60003 -0.675476 -1.51859
Spine1  -3.23485 -1.35413 -2.29363
HEad  -45.2723 -58.0963 -8.86038
LeftShoulder1  -1.94126e-019 -3.10601e-018 -2.51263e-017
LeftArm  -21.235 25.7756 -77.1315
LeftForeArm  32.618 -12.6935 -2.24642
LeftHand  -0.365745 0.393759 8.52839
RightShoulder  -4.96962e-017 0 -2.36833e-017
RightArm  -18.241 -23.3571 80.7691
RightForeArm  52.298 18.1628 1.37025
RightHand  -0.316977 -0.819128 -8.00566
LeftUpLeg  -23.3596 15.5241 5.3032
LeftLeg  59.1636 8.06537 11.5182
LeftFoot  10.474 -0.238282 2.76079
LeftToes  -26.3792 1.46665e-006 1.03344e-007
127
root  -49.5835 34.7525 -13.2981 -175.698 -2.38072 -177.243
RightUpLeg  -7.61019 -4.11185 7.97334
RightLeg  13.6857 1.83049 0.32315
RightFoot  -0.987335 -0.00399972 0.109653
RightToes  -7.69024 -0.0249936 -0.0712644
Spine  -1.73262 -0.190852 -1.90333
Spine1  -3.51206 -0.350062 -3.06199
HEad  -52.1931 -60.0412 -1.87086
LeftShoulder1  -1.94126e-019 -3.10601e-018 -2.51263e-017
LeftArm  -22.5404 28.1554 -76.6882
LeftForeArm  31.0183 -9.93713 -1.74399
LeftHand  -0.327331 0.620258 7.96947
RightShoulder  -4.96962e-017 0 -2.36833e-017
RightArm  -14.3791 -22.4988 80.5172
RightForeArm  51.9437 23.6171 2.42346
RightHand  -0.315738 -0.625379 -7.6698
LeftUpLeg  -24.3135 16.8293 5.60412
LeftLeg  50.885 10.2385 10.8577
LeftFoot  8.02879 -0.150021 2.299
LeftToes  -23.7315 1.46665e-006 1.03344e-007
128
root  -49.7183 34.6922 -14.3731 -175.509 1.11513 -176.569
RightUpLeg  -5.20818 -2.61031 8.27167
RightLeg  12.1919 3.36687 0.504208
RightFoot  -1.21213 -0.00517074 0.0673317
RightToes  -8.36784 -0.0265202 -0.0773774
Spine  -1.80769 0.2679 -1.9523
Spine1  -3.66539 0.664487 -3.1851
HEad  -59.5393 -60.2876 5.76977
LeftShoulder1  -1.94126e-019 -3.10601e-018 -2.51263e-017
LeftArm  -23.8226 30.6606 -77.0071
LeftForeArm  31.0923 -9.5941 -1.68483
LeftHand  -0.342907 0.279912 7.82697
RightShoulder  -4.96962e-017 0 -2.36833e-017
RightArm  -10.8285 -21.0662 79.7936
RightForeArm  51.589 28.083 3.35004
RightHand  -0.331541 -0.437784 -7.77049
LeftUpLeg  -24.5363 17.3435 7.06688
LeftLeg  40.9287 10.5715 7.93448
LeftFoot  5.88276 -0.0723544 1.56965
LeftToes  -23.3972 1.46665e-006 1.03344e-007
